<?xml version="1.0" encoding="utf-8"?>
<svg width="53px" height="40px" viewBox="0 0 53 40" version="1.1" xmlns:xlink="http://www.w3.org/1999/xlink" xmlns="http://www.w3.org/2000/svg">
  <defs>
    <path d="M53 0L53 0L53 40L0 40L0 0L53 0Z" id="path_1" />
    <clipPath id="clip_1">
      <use xlink:href="#path_1" />
    </clipPath>
  </defs>
  <g id="icon-color" clip-path="url(#clip_1)">
    <path d="M53 0L53 0L53 40L0 40L0 0L53 0Z" id="icon-color" fill="none" stroke="none" />
    <g id="Group" transform="translate(2.925909 0.28079414)">
      <g id="Group">
        <path d="M38.6783 0.489188C35.8741 0.402421 34.421 1.71487 34.0701 1.8366C34.3894 1.23199 34.603 0.851072 35.4194 0.00100155C32.6425 -0.0281067 30.0678 0.572843 28.1033 2.41064C25.4686 4.87537 25.6734 6.91744 25.6681 6.90738C25.6686 6.90841 25.2524 5.57571 25.1275 4.15032C22.2603 8.11933 21.1281 13.3783 23.302 17.3013C24.6514 14.046 26.7942 11.2405 29.5556 9.02816C29.6466 6.70675 30.5805 4.7454 32.0566 3.29731C30.7246 4.89166 30.1368 6.70803 30.1961 8.53869C33.408 6.14242 37.3448 4.54533 41.6692 4.02127C38.5383 4.59658 35.7016 5.84442 33.2223 7.54639C34.7741 8.25515 36.5464 8.36626 38.4091 7.71754C36.6233 8.55443 34.6409 8.69135 32.6354 7.96246C30.8554 9.26594 29.2725 10.8061 27.9119 12.4987C30.3274 13.2884 32.9695 13.1251 35.5988 11.785C33.1851 13.344 30.3495 13.9287 27.3195 13.2648C26.1116 14.8859 25.0992 16.627 24.3078 18.4214C25.2826 19.1401 29.5126 21.3948 36.7684 16.0442C35.7439 15.7414 34.9136 15.3133 34.9132 15.3125C34.9363 15.3228 35.661 15.3894 37.7803 14.1198C39.654 13.0241 41.2657 11.0393 42.4555 9.49438C41.4434 9.12152 40.6552 8.73016 40.6549 8.72925C40.6544 8.72873 41.9628 8.81729 43.9924 7.26359C45.8027 5.87774 47.8237 3.86879 47.83 3.92554C47.8428 3.93763 43.3717 0.634165 38.6783 0.489192" id="Shape" fill="#CDD6F4" stroke="none" />
        <path d="M6.35729 7.70683C8.48544 7.08819 9.84054 7.80242 10.1318 7.8259C9.77506 7.4279 9.54074 7.17966 8.75826 6.69265C10.876 6.12324 12.9564 6.0738 14.8007 7.08757C17.2742 8.44723 17.4977 10.0442 17.5 10.0356C17.4996 10.0366 17.5699 8.93856 17.4 7.82734C20.3313 10.2879 22.1762 14.0735 21.2443 17.4925C19.6066 15.2768 17.4458 13.5606 14.9224 12.4183C14.4207 10.6668 13.3414 9.35552 11.9432 8.54261C13.2585 9.4954 14.046 10.7642 14.3416 12.1712C11.4396 10.9776 8.13228 10.536 4.72832 10.9888C7.22931 10.8104 12.5269 11.1727 16.8255 14.7398C15.1258 15.8178 13.0753 16.2142 10.8155 15.7107C12.9512 16.4233 15.2281 16.3104 17.4211 15.207C18.6465 16.2047 19.7449 17.3324 20.6841 18.5443C20.0725 19.2843 17.2581 21.8366 10.714 19.1877C11.4411 18.7551 11.9961 18.265 11.9963 18.2644C11.9806 18.2767 11.439 18.4704 9.58195 17.9203C7.94546 17.4543 6.34369 16.2589 5.14613 15.3156C5.85056 14.8321 6.38051 14.3784 6.38051 14.3776C6.38071 14.3772 5.39698 14.7025 3.55587 13.9182C1.91352 13.2184 -0.00584303 12.0853 1.58348e-05 12.1298C-0.00750964 12.1416 2.79599 8.74223 6.35729 7.70683" id="Shape" fill="#CDD6F4" stroke="none" />
        <path d="M21.6336 36.9675C20.0818 35.5234 20.0153 34.0529 19.893 33.8017C19.7356 34.2932 19.6433 34.6094 19.6195 35.4956C18.1134 34.0357 17.0584 32.348 17.0029 30.3256C16.9287 27.6139 18.1485 26.6356 18.1402 26.6382C18.1413 26.6382 17.1935 27.1263 16.3517 27.8187C16.9702 24.1823 19.2207 20.7813 22.5197 19.8479C21.4744 22.2978 21.0995 24.9297 21.3789 27.5748C20.1663 28.8588 19.6014 30.3991 19.6064 31.9542C19.7581 30.3979 20.4299 29.1187 21.4566 28.1756C21.8778 31.1578 23.1225 34.0997 25.1582 36.6762C23.7909 34.7063 21.5104 30.1659 22.3831 24.8538C24.1084 25.717 25.4377 27.2075 26.1203 29.3179C25.6722 27.2056 24.4685 25.3877 22.4816 24.1312C22.7144 22.6267 23.1175 21.1619 23.6679 19.786C24.5817 19.9216 28.0772 20.9686 29.0626 27.6721C28.3484 27.2889 27.6701 27.0759 27.6694 27.0761C27.6875 27.0828 28.1127 27.4323 28.56 29.2342C28.9698 30.8131 28.7561 32.7259 28.5547 34.1807C27.8089 33.8412 27.1733 33.6307 27.1728 33.6312C27.1723 33.6312 27.9223 34.2792 28.1671 36.1845C28.3854 37.8843 28.3781 40.0274 28.4122 40.0004C28.4257 40.0009 24.2309 39.3838 21.6336 36.9675" id="Shape" fill="#CDD6F4" stroke="none" />
      </g>
    </g>
  </g>
</svg>